<svg width="602" height="463" viewBox="0 0 602 463" fill="none" xmlns="http://www.w3.org/2000/svg">
<path d="M301 417.667C293.636 417.667 287.667 423.636 287.667 431C287.667 438.364 293.636 444.333 301 444.333C308.364 444.333 314.333 438.364 314.333 431C314.333 423.636 308.364 417.667 301 417.667ZM298.5 204L298.5 431H303.5L303.5 204L298.5 204Z" fill="white"/>
<path d="M166.732 461.768C167.709 462.744 169.291 462.744 170.268 461.768L186.178 445.858C187.154 444.882 187.154 443.299 186.178 442.322C185.201 441.346 183.618 441.346 182.642 442.322L168.5 456.464L154.358 442.322C153.382 441.346 151.799 441.346 150.822 442.322C149.846 443.299 149.846 444.882 150.822 445.858L166.732 461.768ZM166 429L166 460L171 460L171 429L166 429Z" fill="white"/>
<path d="M16.7322 461.768C17.7085 462.744 19.2915 462.744 20.2678 461.768L36.1777 445.858C37.154 444.882 37.154 443.299 36.1777 442.322C35.2014 441.346 33.6184 441.346 32.6421 442.322L18.5 456.464L4.35786 442.322C3.38155 441.346 1.79864 441.346 0.82233 442.322C-0.153981 443.299 -0.153981 444.882 0.82233 445.858L16.7322 461.768ZM16 429L16 460L21 460L21 429L16 429Z" fill="white"/>
<path d="M431.732 461.768C432.709 462.744 434.291 462.744 435.268 461.768L451.178 445.858C452.154 444.882 452.154 443.299 451.178 442.322C450.201 441.346 448.618 441.346 447.642 442.322L433.5 456.464L419.358 442.322C418.382 441.346 416.799 441.346 415.822 442.322C414.846 443.299 414.846 444.882 415.822 445.858L431.732 461.768ZM431 429L431 460L436 460L436 429L431 429Z" fill="white"/>
<path d="M581.732 461.768C582.709 462.744 584.291 462.744 585.268 461.768L601.178 445.858C602.154 444.882 602.154 443.299 601.178 442.322C600.201 441.346 598.618 441.346 597.642 442.322L583.5 456.464L569.358 442.322C568.382 441.346 566.799 441.346 565.822 442.322C564.846 443.299 564.846 444.882 565.822 445.858L581.732 461.768ZM581 429L581 460L586 460L586 429L581 429Z" fill="white"/>
<path d="M301 431.5L586 431.5" stroke="white" stroke-width="5"/>
<path d="M314.333 431.5C314.333 424.136 308.364 418.167 301 418.167C293.636 418.167 287.667 424.136 287.667 431.5C287.667 438.864 293.636 444.833 301 444.833C308.364 444.833 314.333 438.864 314.333 431.5ZM301 429L16 429V434L301 434V429Z" fill="white"/>
<path d="M166.732 234.268C167.709 235.244 169.291 235.244 170.268 234.268L186.178 218.358C187.154 217.382 187.154 215.799 186.178 214.822C185.201 213.846 183.618 213.846 182.642 214.822L168.5 228.964L154.358 214.822C153.382 213.846 151.799 213.846 150.822 214.822C149.846 215.799 149.846 217.382 150.822 218.358L166.732 234.268ZM166 201.5L166 232.5L171 232.5L171 201.5L166 201.5Z" fill="white"/>
<path d="M16.7322 234.268C17.7085 235.244 19.2915 235.244 20.2678 234.268L36.1777 218.358C37.154 217.382 37.154 215.799 36.1777 214.822C35.2014 213.846 33.6184 213.846 32.6421 214.822L18.5 228.964L4.35786 214.822C3.38155 213.846 1.79864 213.846 0.82233 214.822C-0.153981 215.799 -0.153981 217.382 0.82233 218.358L16.7322 234.268ZM16 201.5L16 232.5L21 232.5L21 201.5L16 201.5Z" fill="white"/>
<path d="M431.732 234.268C432.709 235.244 434.291 235.244 435.268 234.268L451.178 218.358C452.154 217.382 452.154 215.799 451.178 214.822C450.201 213.846 448.618 213.846 447.642 214.822L433.5 228.964L419.358 214.822C418.382 213.846 416.799 213.846 415.822 214.822C414.846 215.799 414.846 217.382 415.822 218.358L431.732 234.268ZM431 201.5L431 232.5L436 232.5L436 201.5L431 201.5Z" fill="white"/>
<path d="M581.732 234.268C582.709 235.244 584.291 235.244 585.268 234.268L601.178 218.358C602.154 217.382 602.154 215.799 601.178 214.822C600.201 213.846 598.618 213.846 597.642 214.822L583.5 228.964L569.358 214.822C568.382 213.846 566.799 213.846 565.822 214.822C564.846 215.799 564.846 217.382 565.822 218.358L581.732 234.268ZM581 201.5L581 232.5L586 232.5L586 201.5L581 201.5Z" fill="white"/>
<path d="M301 204L586 204" stroke="white" stroke-width="5"/>
<path d="M314.333 204C314.333 196.636 308.364 190.667 301 190.667C293.636 190.667 287.667 196.636 287.667 204C287.667 211.364 293.636 217.333 301 217.333C308.364 217.333 314.333 211.364 314.333 204ZM301 201.5L16 201.5V206.5L301 206.5V201.5Z" fill="white"/>
<path d="M301 0.566243L286.566 15L301 29.4338L315.434 15L301 0.566243ZM298.5 15L298.5 204L303.5 204L303.5 15L298.5 15Z" fill="white"/>
</svg>
