<svg width="80" height="80" viewBox="0 0 80 80" fill="none" xmlns="http://www.w3.org/2000/svg">
<g clip-path="url(#clip0_105_39)">
<path d="M62.2222 80H17.7778C7.97556 80 0 72.0244 0 62.2222V17.7778C0 7.97556 7.97556 0 17.7778 0H62.2222C72.0244 0 80 7.97556 80 17.7778V62.2222C80 72.0244 72.0244 80 62.2222 80Z" fill="#1E88E5"/>
<path d="M66.5022 25.7192L52.0311 39.9999L66.5 54.2784C66.5978 53.9188 66.6666 53.5482 66.6666 53.1578V26.842C66.6666 26.4517 66.5978 26.0811 66.5022 25.7192ZM45.9733 39.7784L63.36 22.6183C62.9933 22.524 62.6178 22.4561 62.2222 22.4561H17.7778C17.3822 22.4561 17.0066 22.524 16.64 22.6183L34.0266 39.7784C37.3222 43.0262 42.6778 43.0262 45.9733 39.7784ZM40 46.5986C36.8 46.5986 33.6155 45.41 31.1333 43.0789L16.64 57.3815C17.0066 57.4758 17.3822 57.5438 17.7778 57.5438H62.2222C62.6178 57.5438 62.9933 57.4758 63.36 57.3815L48.8666 43.0789C46.3844 45.41 43.2 46.5986 40 46.5986ZM13.4978 25.7192C13.4022 26.0811 13.3333 26.4517 13.3333 26.842V53.1578C13.3333 53.5482 13.4022 53.9188 13.4978 54.2806L27.9689 39.9999L13.4978 25.7192Z" fill="white"/>
</g>
<defs>
<clipPath id="clip0_105_39">
<rect width="80" height="80" fill="white"/>
</clipPath>
</defs>
</svg>
