<svg width="271" height="155" viewBox="0 0 271 155" fill="none" xmlns="http://www.w3.org/2000/svg">
<path d="M53.5455 77.7727L50.7727 94.9091H7.72727L10.5 77.7727H53.5455Z" fill="white"/>
<path d="M96.5455 77.7727L93.7727 94.9091H50.7273L53.5 77.7727H96.5455Z" fill="white"/>
<path d="M127.545 77.7727L124.773 94.9091H81.7273L84.5 77.7727H127.545Z" fill="white"/>
<path d="M158.545 77.7727L155.773 94.9091H112.727L115.5 77.7727H158.545Z" fill="white"/>
<path d="M127.545 77.7727L124.773 94.9091H81.7273L84.5 77.7727H127.545Z" fill="white"/>
<path d="M158.545 77.7727L155.773 94.9091H112.727L115.5 77.7727H158.545Z" fill="white"/>
<path d="M201.545 77.7727L198.773 94.9091H155.727L158.5 77.7727H201.545Z" fill="white"/>
<path d="M232.545 77.7727L229.773 94.9091H186.727L189.5 77.7727H232.545Z" fill="white"/>
<path d="M263.545 77.7727L260.773 94.9091H217.727L220.5 77.7727H263.545Z" fill="white"/>
</svg>
