<svg width="345" height="155" viewBox="0 0 345 155" fill="none" xmlns="http://www.w3.org/2000/svg">
<path d="M53.5455 77.7727L50.7727 94.9091H7.72727L10.5 77.7727H53.5455Z" fill="white"/>
<path d="M81.5455 77.7727L78.7727 94.9091H35.7273L38.5 77.7727H81.5455Z" fill="white"/>
<path d="M124.545 77.7727L121.773 94.9091H78.7273L81.5 77.7727H124.545Z" fill="white"/>
<path d="M155.545 77.7727L152.773 94.9091H109.727L112.5 77.7727H155.545Z" fill="white"/>
<path d="M198.545 77.7727L195.773 94.9091H152.727L155.5 77.7727H198.545Z" fill="white"/>
<path d="M232.545 77.7727L229.773 94.9091H186.727L189.5 77.7727H232.545Z" fill="white"/>
<path d="M263.545 77.7727L260.773 94.9091H217.727L220.5 77.7727H263.545Z" fill="white"/>
<path d="M306.545 77.7727L303.773 94.9091H260.727L263.5 77.7727H306.545Z" fill="white"/>
<path d="M337.545 77.7727L334.773 94.9091H291.727L294.5 77.7727H337.545Z" fill="white"/>
</svg>
