<svg width="80" height="80" viewBox="0 0 80 80" fill="none" xmlns="http://www.w3.org/2000/svg">
<g clip-path="url(#clip0_105_42)">
<path d="M80 68.8889C80 75.0267 75.0267 80 68.8889 80H11.1111C4.97556 80 0 75.0267 0 68.8889V11.1111C0 4.97333 4.97556 0 11.1111 0H68.8889C75.0267 0 80 4.97333 80 11.1111V68.8889Z" fill="#1976D2"/>
<path d="M66.5259 26.6466C66.6282 26.311 66.6771 25.9999 66.6637 25.7221C66.6304 24.9177 66.0771 24.3333 64.7748 24.3333H58.9571C57.4883 24.3333 56.8105 25.2221 56.415 26.1133C56.415 26.1133 52.7883 33.5777 48.6084 38.4999C47.2529 39.9244 46.564 39.8888 45.8307 39.8888C45.4373 39.8888 44.444 39.4132 44.444 38.1088V26.5866C44.444 25.0444 44.0596 24.3333 42.8174 24.3333H32.4864C31.582 24.3333 31.1109 25.0444 31.1109 25.7577C31.1109 27.2399 33.1064 27.5955 33.333 31.7488V39.7999C33.333 41.7555 32.9931 42.111 32.2597 42.111C30.282 42.111 26.3887 35.4444 23.7821 26.7066C23.2176 24.9866 22.6532 24.3333 21.1843 24.3333H15.3111C13.6155 24.3333 13.3333 25.1644 13.3333 26.0533C13.3333 27.6555 14.6666 36.3177 21.9443 46.2777C27.222 53.4999 34.1753 57.6666 40.3307 57.6666C44.0596 57.6666 44.4418 56.7177 44.4418 55.2355V48.631C44.444 46.851 44.8507 46.5555 46.0373 46.5555C46.884 46.5555 48.6106 47.111 51.9439 50.9999C55.7883 55.4844 56.4861 57.6666 58.6905 57.6666H64.5082C65.8593 57.6666 66.6348 57.0999 66.6659 55.9999C66.6726 55.7199 66.6326 55.4066 66.5415 55.0577C66.1104 53.7777 64.1326 50.6488 61.666 47.6666C60.2994 46.0155 58.9505 44.3799 58.3305 43.491C57.9149 42.911 57.7572 42.5021 57.7772 42.111C57.7972 41.6999 58.0105 41.3088 58.3305 40.7621C58.2727 40.7621 65.7926 30.2044 66.5259 26.6466Z" fill="white"/>
</g>
<defs>
<clipPath id="clip0_105_42">
<rect width="80" height="80" fill="white"/>
</clipPath>
</defs>
</svg>
